<svg width="73" height="74" viewBox="0 0 73 74" fill="none" xmlns="http://www.w3.org/2000/svg">
<path d="M54.75 24.4258V21.3841H51.7084V18.3424H48.6667V15.3008H42.5834V18.3424H39.5417V21.3841H36.5V24.4258H33.4584V27.4674H30.4167V30.5091H27.375V33.5508H24.3334V36.5924H21.2917V45.7174H24.3334V42.6758H27.375V39.6341H33.4584V45.7174H30.4167V48.7591H27.375V51.8008H36.5V48.7591H39.5417V45.7174H42.5834V42.6758H45.625V39.6341H48.6667V36.5924H51.7084V33.5508H54.75V30.5091H57.7917V24.4258H54.75ZM51.7084 30.5091H48.6667V33.5508H42.5834V30.5091H39.5417V24.4258H42.5834V21.3841H48.6667V24.4258H51.7084V30.5091Z" fill="#D0EDF4"/>
<path d="M21.2917 45.7188H18.25V48.7604H21.2917V45.7188Z" fill="#FFD100"/>
<path d="M24.3333 54.8451V60.9284H18.25V63.9701H9.125V54.8451H12.1667V48.7617H18.25V51.8034H15.2083V57.8867H21.2917V54.8451H24.3333Z" fill="#FFD100"/>
<path d="M27.375 51.8008H24.3333V54.8424H27.375V51.8008Z" fill="#FFD100"/>
<path d="M51.7084 24.4284V30.5117H48.6667V33.5534H42.5834V30.5117H39.5417V24.4284H42.5834V21.3867H48.6667V24.4284H51.7084Z" fill="#1A6A8A"/>
<path d="M33.4583 51.8034V57.8867H30.4166V60.9284H27.375V63.9701H21.2916V67.0117H6.08331V51.8034H9.12498V45.7201H12.1666V42.6784H15.2083V39.6367H21.2916V45.7201H18.25V48.7617H12.1666V54.8451H9.12498V63.9701H18.25V60.9284H24.3333V54.8451H27.375V51.8034H33.4583Z" fill="#EF9520"/>
<path d="M27.375 30.5117V33.5534H24.3333V36.5951H21.2916V39.6367H15.2083V42.6784H6.08331V36.5951H9.12498V33.5534H12.1666V30.5117H27.375Z" fill="#BC131A"/>
<path d="M42.5834 45.7188V60.9271H39.5417V63.9688H36.5V67.0104H30.4167V57.8854H33.4584V51.8021H36.5V48.7604H39.5417V45.7188H42.5834Z" fill="#BC131A"/>
<path d="M33.4583 39.6367V45.7201H30.4166V48.7617H27.375V51.8034H24.3333V54.8451H21.2916V57.8867H15.2083V51.8034H18.25V48.7617H21.2916V45.7201H24.3333V42.6784H27.375V39.6367H33.4583Z" fill="#BC131A"/>
<path d="M66.9167 6.17578V21.3841H63.875V24.4258H60.8333V27.4674H57.7917V24.4258H54.75V21.3841H51.7083V18.3424H48.6667V15.3008H45.625V12.2591H48.6667V9.21745H51.7083V6.17578H66.9167Z" fill="#BC131A"/>
<path d="M36.5 21.3867H33.4583V24.4284H36.5V21.3867Z" fill="black"/>
<path d="M39.5417 18.3438H36.5V21.3854H39.5417V18.3438Z" fill="black"/>
<path d="M66.9167 21.3867H63.875V24.4284H66.9167V21.3867Z" fill="black"/>
<path d="M63.875 24.4258H60.8333V27.4674H63.875V24.4258Z" fill="black"/>
<path d="M60.8334 27.4688H57.7917V30.5104H60.8334V27.4688Z" fill="black"/>
<path d="M57.7917 30.5117H54.75V33.5534H57.7917V30.5117Z" fill="black"/>
<path d="M54.75 33.5508H51.7083V36.5924H54.75V33.5508Z" fill="black"/>
<path d="M51.7084 36.5938H48.6667V39.6354H51.7084V36.5938Z" fill="black"/>
<path d="M48.6667 39.6367H45.625V42.6784H48.6667V39.6367Z" fill="black"/>
<path d="M9.12498 33.5508H6.08331V36.5924H9.12498V33.5508Z" fill="black"/>
<path d="M12.1667 30.5117H9.125V33.5534H12.1667V30.5117Z" fill="black"/>
<path d="M6.08335 36.5938H3.04169V42.6771H6.08335V36.5938Z" fill="black"/>
<path d="M12.1666 42.6758V45.7174H9.12498V51.8008H6.08331V42.6758H12.1666Z" fill="black"/>
<path d="M21.2917 67.0091V70.0508H3.04169V51.8008H6.08335V67.0091H21.2917Z" fill="black"/>
<path d="M30.4167 27.4688H12.1667V30.5104H30.4167V27.4688Z" fill="black"/>
<path d="M36.5 67.0117H30.4167V70.0534H36.5V67.0117Z" fill="black"/>
<path d="M30.4167 60.9258V67.0091H21.2917V63.9674H27.375V60.9258H30.4167Z" fill="black"/>
<path d="M33.4584 24.4258H30.4167V27.4674H33.4584V24.4258Z" fill="black"/>
<path d="M39.5417 63.9688H36.5V67.0104H39.5417V63.9688Z" fill="black"/>
<path d="M42.5834 15.3008H39.5417V18.3424H42.5834V15.3008Z" fill="black"/>
<path d="M42.5834 60.9258H39.5417V63.9674H42.5834V60.9258Z" fill="black"/>
<path d="M48.6667 9.21875H45.625V12.2604H48.6667V9.21875Z" fill="black"/>
<path d="M45.625 12.2617H42.5833V15.3034H45.625V12.2617Z" fill="black"/>
<path d="M45.625 42.6758H42.5833V60.9258H45.625V42.6758Z" fill="black"/>
<path d="M51.7084 6.17578H48.6667V9.21745H51.7084V6.17578Z" fill="black"/>
<path d="M69.9583 3.13672V21.3867H66.9166V6.17839H51.7083V3.13672H69.9583Z" fill="black"/>
</svg>
