<svg width="26" height="26" viewBox="0 0 26 26" fill="none" xmlns="http://www.w3.org/2000/svg">
<path d="M14.1667 11.6641V5.41406H11.6667V14.1641H17.9167V11.6641H14.1667Z" fill="#FF6F00"/>
<path d="M24.1667 4.16406V2.91406H22.9167V1.66406H21.6667V0.414062H4.16669V1.66406H2.91669V2.91406H1.66669V4.16406H0.416687V21.6641H1.66669V22.9141H2.91669V24.1641H4.16669V25.4141H21.6667V24.1641H22.9167V22.9141H24.1667V21.6641H25.4167V4.16406H24.1667ZM22.9167 19.1641H21.6667V20.4141H20.4167V21.6641H19.1667V22.9141H6.66669V21.6641H5.41669V20.4141H4.16669V19.1641H2.91669V6.66406H4.16669V5.41406H5.41669V4.16406H6.66669V2.91406H19.1667V4.16406H20.4167V5.41406H21.6667V6.66406H22.9167V19.1641Z" fill="#FF6F00"/>
</svg>
